<?xml version="1.0" encoding="utf-8"?>
<svg xmlns="http://www.w3.org/2000/svg" viewBox="0 0 16 16" width="32" height="32">
  <path d="M2.757813 1C1.792969 1 1 1.792969 1 2.757813L1 12.246094C1 13.207031 1.792969 14 2.757813 14L12.246094 14C13.207031 14 14 13.207031 14 12.246094L14 2.757813C14 1.792969 13.207031 1 12.246094 1 Z M 2.757813 2L12.246094 2C12.667969 2 13 2.332031 13 2.757813L13 12.246094C13 12.667969 12.667969 13 12.246094 13L2.757813 13C2.332031 13 2 12.667969 2 12.246094L2 2.757813C2 2.332031 2.332031 2 2.757813 2 Z M 4 3C3.449219 3 3 3.449219 3 4C3 4.550781 3.449219 5 4 5C4.550781 5 5 4.550781 5 4C5 3.449219 4.550781 3 4 3 Z M 3 6L3 12L5 12L5 6 Z M 6 6L6 12L8 12L8 9.320313C8 8.488281 8.078125 7.742188 9.078125 7.742188C10.0625 7.742188 10 8.636719 10 9.375L10 12L12 12L12 9.039063C12 7.320313 11.640625 6 9.691406 6C8.753906 6 8.28125 6.375 8.023438 6.875L8 6.875L8 6Z" fill="#FFFFFF" />
</svg>